{
    "accessors" : [
        {
            "bufferView" : 0, 
            "componentType" : 5121, 
            "count" : 348, 
            "max" : [
                229
            ], 
            "min" : [
                0
            ], 
            "type" : "SCALAR"
        }, 
        {
            "bufferView" : 1, 
            "componentType" : 5126, 
            "count" : 230, 
            "max" : [
                1.0315003395080566, 
                5.963713645935059, 
                1.0000004768371582
            ], 
            "min" : [
                -1.0373613834381104, 
                -1.552991509437561, 
                -1.2162683010101318
            ], 
            "type" : "VEC3"
        }, 
        {
            "bufferView" : 2, 
            "componentType" : 5126, 
            "count" : 230, 
            "max" : [
                1.0, 
                1.0, 
                1.0
            ], 
            "min" : [
                -1.0, 
                -1.0, 
                -0.99993896484375
            ], 
            "type" : "VEC3"
        }
    ], 
    "asset" : {
        "generator" : "Khronos Blender glTF 2.0 exporter", 
        "version" : "2.0"
    }, 
    "bufferViews" : [
        {
            "buffer" : 0, 
            "byteLength" : 348, 
            "byteOffset" : 0, 
            "target" : 34963
        }, 
        {
            "buffer" : 0, 
            "byteLength" : 2760, 
            "byteOffset" : 348, 
            "target" : 34962
        }, 
        {
            "buffer" : 0, 
            "byteLength" : 2760, 
            "byteOffset" : 3108, 
            "target" : 34962
        }
    ], 
    "buffers" : [
        {
            "byteLength" : 5868, 
            "uri" : "bus2.bin"
        }
    ], 
    "meshes" : [
        {
            "name" : "Cube.001", 
            "primitives" : [
                {
                    "attributes" : {
                        "NORMAL" : 2, 
                        "POSITION" : 1
                    }, 
                    "indices" : 0
                }
            ]
        }
    ], 
    "nodes" : [
        {
            "name" : "Camera", 
            "rotation" : [
                0.483536034822464, 
                0.33687159419059753, 
                -0.20870360732078552, 
                0.7804827094078064
            ], 
            "translation" : [
                7.481131553649902, 
                5.34366512298584, 
                6.5076398849487305
            ]
        }, 
        {
            "name" : "Camera.001", 
            "rotation" : [
                0.483536034822464, 
                -0.20870360732078552, 
                -0.33687159419059753, 
                0.7804827094078064
            ], 
            "translation" : [
                7.481131553649902, 
                6.507639408111572, 
                -5.34366512298584
            ]
        }, 
        {
            "mesh" : 0, 
            "name" : "Cube.001"
        }, 
        {
            "name" : "Lamp", 
            "rotation" : [
                0.16907575726509094, 
                0.7558802962303162, 
                -0.27217137813568115, 
                0.570947527885437
            ], 
            "scale" : [
                1.0, 
                1.0, 
                0.9999999403953552
            ], 
            "translation" : [
                4.076245307922363, 
                5.903861999511719, 
                -1.0054539442062378
            ]
        }, 
        {
            "name" : "Lamp.001", 
            "rotation" : [
                0.16907574236392975, 
                -0.27217134833335876, 
                -0.7558803558349609, 
                0.570947527885437
            ], 
            "scale" : [
                0.9999999403953552, 
                0.9999998807907104, 
                1.0
            ], 
            "translation" : [
                4.076245307922363, 
                -1.0054539442062378, 
                -5.903861999511719
            ]
        }, 
        {
            "children" : [
                1, 
                2, 
                4
            ], 
            "name" : "SceneRoot", 
            "rotation" : [
                -3.090862321641907e-08, 
                0.7071067094802856, 
                -0.7071068286895752, 
                -3.0908616110991716e-08
            ]
        }
    ], 
    "scene" : 0, 
    "scenes" : [
        {
            "name" : "Scene", 
            "nodes" : [
                5, 
                3, 
                0
            ]
        }
    ]
}
